# Blender 4.2.1 LTS
# www.blender.org
mtllib player.mtl
o 立方体
v 0.553940 -0.563844 -0.350229
v 0.482429 0.985196 -0.745490
v 0.553940 -0.563844 0.350228
v 0.482429 0.985196 0.745490
v -0.553940 -0.563844 -0.350229
v -0.482429 0.985196 -0.745490
v -0.553940 -0.563844 0.350228
v -0.482429 0.985196 0.745490
vn 0.9989 0.0461 -0.0000
vn -0.0000 -0.2472 0.9690
vn -0.9989 0.0461 -0.0000
vn -0.0000 -0.2472 -0.9690
vn -0.0000 -1.0000 -0.0000
vn -0.0000 1.0000 -0.0000
vt 0.201711 0.555373
vt 0.274398 0.932827
vt 0.000213 0.932827
vt 0.072900 0.555373
vt 0.000213 0.128727
vt 0.362482 0.000213
vt 0.362482 0.554948
vt 0.000213 0.426434
vt 0.476322 0.555373
vt 0.549009 0.932827
vt 0.274823 0.932827
vt 0.347510 0.555373
vt 0.362907 0.128727
vt 0.725177 0.000213
vt 0.725177 0.554948
vt 0.362907 0.426434
vt 0.549434 0.853080
vt 0.549434 0.555373
vt 0.678245 0.555373
vt 0.678245 0.853080
vt 0.999787 0.000213
vt 0.999787 0.554948
vt 0.725602 0.554948
vt 0.725602 0.000213
s 0
usemtl マテリアル
f 1/1/1 2/2/1 4/3/1 3/4/1
f 3/5/2 4/6/2 8/7/2 7/8/2
f 7/9/3 8/10/3 6/11/3 5/12/3
f 5/13/4 6/14/4 2/15/4 1/16/4
f 3/17/5 7/18/5 5/19/5 1/20/5
f 8/21/6 4/22/6 2/23/6 6/24/6
