# Blender 4.2.1 LTS
# www.blender.org
mtllib Enemy.mtl
o 立方体
v -0.176733 -0.500000 0.168013
v -0.500000 0.500000 0.500000
v -0.176733 -0.500000 -0.168014
v -0.500000 0.500000 -0.500000
v 0.176733 -0.500000 0.168013
v 0.500000 0.500000 0.500000
v 0.176733 -0.500000 -0.168014
v 0.500000 0.500000 -0.500000
v -0.500000 0.861708 0.500000
v -0.500000 0.861708 -0.500000
v 0.500000 0.861708 -0.500000
v 0.500000 0.861708 0.500000
v -0.156475 1.244954 0.177615
v -0.156475 1.244954 -0.177615
v 0.156475 1.244954 -0.177615
v 0.156475 1.244954 0.177615
vn -0.9515 -0.3076 -0.0000
vn -0.0000 -0.3151 -0.9491
vn 0.9515 -0.3076 -0.0000
vn -0.0000 -0.3151 0.9491
vn -0.0000 -1.0000 -0.0000
vn -1.0000 -0.0000 -0.0000
vn -0.0000 0.6437 0.7653
vn -0.0000 -0.0000 1.0000
vn -0.0000 -0.0000 -1.0000
vn 1.0000 -0.0000 -0.0000
vn -0.0000 1.0000 -0.0000
vn -0.0000 0.6437 -0.7653
vn 0.7446 0.6675 -0.0000
vn -0.7446 0.6675 -0.0000
vt 0.174357 0.000162
vt 0.260928 0.274215
vt 0.000162 0.274215
vt 0.086733 0.000162
vt 0.698812 0.000162
vt 0.783109 0.274923
vt 0.522343 0.274923
vt 0.606640 0.000162
vt 0.435448 0.000162
vt 0.522018 0.274215
vt 0.261253 0.274215
vt 0.347823 0.000162
vt 0.698812 0.500162
vt 0.783109 0.774923
vt 0.522343 0.774923
vt 0.606640 0.500162
vt 0.082093 0.595241
vt 0.082093 0.503069
vt 0.169718 0.503069
vt 0.169718 0.595241
vt 0.260928 0.368536
vt 0.000162 0.368536
vt 0.522343 0.869244
vt 0.783109 0.869244
vt 0.693529 0.999838
vt 0.611923 0.999838
vt 0.783109 0.369244
vt 0.522343 0.369244
vt 0.522018 0.368536
vt 0.261253 0.368536
vt 0.000162 0.503069
vt 0.081769 0.503069
vt 0.081769 0.595701
vt 0.000162 0.595701
vt 0.693529 0.499838
vt 0.611923 0.499838
vt 0.437952 0.502745
vt 0.345320 0.502745
vt 0.176861 0.502745
vt 0.084229 0.502745
s 0
usemtl マテリアル
f 1/1/1 2/2/1 4/3/1 3/4/1
f 3/5/2 4/6/2 8/7/2 7/8/2
f 7/9/3 8/10/3 6/11/3 5/12/3
f 5/13/4 6/14/4 2/15/4 1/16/4
f 3/17/5 7/18/5 5/19/5 1/20/5
f 4/3/6 2/2/6 9/21/6 10/22/6
f 9/23/7 12/24/7 16/25/7 13/26/7
f 2/15/8 6/14/8 12/24/8 9/23/8
f 8/7/9 4/6/9 10/27/9 11/28/9
f 6/11/10 8/10/10 11/29/10 12/30/10
f 15/31/11 14/32/11 13/33/11 16/34/11
f 11/28/12 10/27/12 14/35/12 15/36/12
f 12/30/13 11/29/13 15/37/13 16/38/13
f 10/22/14 9/21/14 13/39/14 14/40/14
